:SAMPLES-PER-SECOND 24
:FULLY-SPECIFIED
:DEGREES
460
root  6.72339 38.4879 48.1956 -179.55 -18.4553 -174.802
RightUpLeg  -23.7458 17.089 -9.6643
RightLeg  16.1776 14.0439 3.75092
RightFoot  0.352497 -1.94455 18.7973
RightToes  -2.08645e-008 3.77894e-005 6.81332e-007
Spine  5.86504 -7.63699 -7.17199
Spine1  10.1714 -12.4911 16.2908
HEad  -24.393 -2.21875 -7.58419
LeftShoulder1  7.84697 -13.6435 -39.5818
LeftArm  2.33783 8.6198 -33.4261
LeftForeArm  114.795 -80.122 -104.027
LeftHand  -0.66785 -2.14173 10.4941
RightShoulder  3.70528 6.31611 31.8459
RightArm  -18.1617 -32.8888 15.3874
RightForeArm  29.7676 3.52921 7.39234
RightHand  -1.86386 5.69978 -19.6301
LeftUpLeg  4.01034 -21.5793 -0.645178
LeftLeg  31.0496 -7.74039 -4.65681
LeftFoot  -17.6963 0.659036 9.96771
LeftToes  1.24767e-006 1.47042e-008 1.32732e-009
461
root  7.28008 38.1658 47.3239 179.646 -25.3928 -173.239
RightUpLeg  -21.8189 13.7314 -7.25756
RightLeg  18.7518 10.6287 3.82256
RightFoot  -5.01326 -0.90846 15.4806
RightToes  -2.08645e-008 3.77894e-005 6.81332e-007
Spine  3.82094 -7.09412 -4.58933
Spine1  9.91162 -11.7195 16.2199
HEad  -24.9695 9.36201 -11.6201
LeftShoulder1  7.89071 -13.654 -39.7967
LeftArm  5.32585 7.70364 -31.5471
LeftForeArm  116.698 -80.0749 -105.546
LeftHand  -0.607087 -2.58063 9.0529
RightShoulder  3.79831 6.42192 32.3825
RightArm  -20.7371 -30.7926 17.6329
RightForeArm  29.9054 1.69803 6.30871
RightHand  -1.8565 5.63516 -19.6637
LeftUpLeg  2.26819 -19.3595 4.02429
LeftLeg  33.9139 -6.67506 -4.46796
LeftFoot  -20.7609 0.593066 5.74951
LeftToes  1.24767e-006 1.47042e-008 1.32732e-009
462
root  7.84956 38.1445 46.7623 177.638 -31.2748 -170.723
RightUpLeg  -19.9348 9.91001 -3.14552
RightLeg  19.9895 6.83376 2.54347
RightFoot  -6.54802 -0.48725 10.6142
RightToes  -2.08645e-008 3.77894e-005 6.81332e-007
Spine  3.91834 -6.00323 -0.794075
Spine1  9.26112 -10.0722 14.5753
HEad  -28.0555 21.5738 -15.2769
LeftShoulder1  8.18123 -13.9045 -40.7467
LeftArm  8.14106 4.8522 -28.8311
LeftForeArm  111.883 -80.2949 -100.327
LeftHand  -0.611856 -2.33202 9.4077
RightShoulder  3.97408 6.62687 33.3419
RightArm  -23.615 -25.6309 21.4887
RightForeArm  30.9782 0.414083 5.26062
RightHand  -1.81287 5.29945 -19.7958
LeftUpLeg  -0.99568 -14.4828 9.19844
LeftLeg  38.1659 -4.78571 -3.66109
LeftFoot  -20.6125 0.132026 0.105627
LeftToes  1.24767e-006 1.47042e-008 1.32732e-009
463
root  8.47225 38.2752 46.4329 176.057 -37.5106 -169.839
RightUpLeg  -18.8503 8.2362 -1.80032
RightLeg  21.3163 2.79904 0.991212
RightFoot  -5.6725 -0.439131 8.07509
RightToes  -2.08645e-008 3.77894e-005 6.81332e-007
Spine  5.08653 -4.90542 0.211827
Spine1  8.82098 -8.60767 13.3465
HEad  -32.7861 33.8931 -19.3693
LeftShoulder1  8.2648 -14.0056 -40.9414
LeftArm  10.0919 1.59909 -28.4871
LeftForeArm  97.9667 -80.4285 -86.2474
LeftHand  -0.674475 -2.37813 10.2843
RightShoulder  4.04346 6.75405 33.5319
RightArm  -24.4658 -18.4382 26.326
RightForeArm  33.0682 0.821889 4.80028
RightHand  -1.87213 5.50223 -20.0553
LeftUpLeg  -4.71145 -9.73097 11.0417
LeftLeg  41.8849 0.132942 0.525713
LeftFoot  -17.625 -0.167839 -4.97811
LeftToes  1.24767e-006 1.47042e-008 1.32732e-009
464
root  9.02961 38.4125 46.2679 175.798 -44.8965 -170.192
RightUpLeg  -17.9534 5.82217 -2.36424
RightLeg  21.8749 -1.77857 -0.993275
RightFoot  -6.14965 -0.382614 7.50549
RightToes  -2.08645e-008 3.77894e-005 6.81332e-007
Spine  6.08434 -4.15261 0.346777
Spine1  7.75158 -7.38038 12.2374
HEad  -37.7708 45.2979 -24.0792
LeftShoulder1  8.0018 -13.8011 -40.0336
LeftArm  11.4393 0.209158 -30.7287
LeftForeArm  86.5197 -80.1094 -75.185
LeftHand  -0.66506 -2.76926 9.68254
RightShoulder  3.95662 6.74453 32.7217
RightArm  -21.0954 -13.0329 30.4593
RightForeArm  32.114 6.0609 6.14588
RightHand  -2.03908 6.27686 -20.3922
LeftUpLeg  -8.43752 -5.27842 10.1207
LeftLeg  43.2125 4.54319 4.94335
LeftFoot  -15.6606 -0.173341 -7.01275
LeftToes  1.24767e-006 1.47042e-008 1.32732e-009
465
root  9.3776 38.647 46.2325 176.334 -51.5712 -170.436
RightUpLeg  -16.7761 2.18028 -3.10669
RightLeg  20.0017 -4.74524 -2.12189
RightFoot  -5.97759 -0.388795 7.41968
RightToes  -2.08645e-008 3.77894e-005 6.81332e-007
Spine  5.74374 -3.13995 3.48061
Spine1  6.59727 -5.06432 7.87497
HEad  -41.2662 54.0735 -27.9118
LeftShoulder1  7.7828 -13.5985 -39.3396
LeftArm  13.2685 0.659759 -32.959
LeftForeArm  86.9441 -80.1237 -75.5829
LeftHand  -0.618159 -2.93634 8.84825
RightShoulder  3.8509 6.67199 31.9557
RightArm  -9.49062 -11.2833 32.2194
RightForeArm  21.4319 18.6693 5.60324
RightHand  -2.05947 6.28307 -20.5788
LeftUpLeg  -10.5179 1.7174 7.99398
LeftLeg  40.0235 6.28547 6.01355
LeftFoot  -16.0706 -0.18636 -6.8299
LeftToes  1.24767e-006 1.47042e-008 1.32732e-009
466
root  9.56285 38.8574 46.3149 176.924 -56.256 -170.391
RightUpLeg  -15.8389 -0.945503 -3.69243
RightLeg  17.5993 -5.69583 -2.25363
RightFoot  -4.76244 -0.481243 7.79065
RightToes  -2.08645e-008 3.77894e-005 6.81332e-007
Spine  4.47147 -1.25992 8.26564
Spine1  6.47375 -1.63326 1.77613
HEad  -42.5935 59.7659 -30.1269
LeftShoulder1  7.70205 -13.5152 -39.0998
LeftArm  14.8343 2.26932 -34.0652
LeftForeArm  93.7707 -80.3562 -82.0612
LeftHand  -0.603881 -3.29855 8.31493
RightShoulder  3.7122 6.52239 31.1294
RightArm  -6.25801 -11.3432 30.9499
RightForeArm  18.3179 32.7649 6.06672
RightHand  -1.92845 5.56449 -20.5249
LeftUpLeg  -9.77266 10.2402 5.9205
LeftLeg  32.614 7.48304 5.47853
LeftFoot  -17.8774 -0.238898 -6.0597
LeftToes  1.24767e-006 1.47042e-008 1.32732e-009
467
root  9.72636 38.9054 46.4785 177.517 -60.7504 -170.479
RightUpLeg  -15.7029 -3.52183 -4.47452
RightLeg  17.2459 -7.64033 -2.86391
RightFoot  -4.82266 -0.473181 7.71974
RightToes  -2.08645e-008 3.77894e-005 6.81332e-007
Spine  3.67428 0.456286 11.0575
Spine1  6.55872 0.992696 -1.92439
HEad  -43.1839 62.8192 -31.6155
LeftShoulder1  7.5328 -13.3396 -38.5904
LeftArm  15.1193 5.30344 -34.2165
LeftForeArm  101.8 -80.4425 -90.2432
LeftHand  -0.531036 -3.59103 7.12126
RightShoulder  3.55876 6.3681 30.1398
RightArm  -8.65757 -11.2896 28.303
RightForeArm  21.4893 44.3111 9.45352
RightHand  -1.78492 4.75641 -20.4982
LeftUpLeg  -8.27748 13.1351 4.83645
LeftLeg  25.4357 7.85442 4.39168
LeftFoot  -19.4794 -0.231833 -4.897
LeftToes  1.24767e-006 1.47042e-008 1.32732e-009
468
root  9.94001 38.8693 46.6668 178.376 -66.746 -170.982
RightUpLeg  -16.2607 -6.54166 -5.66888
RightLeg  18.9984 -10.1863 -4.08258
RightFoot  -5.60608 -0.443648 8.08943
RightToes  -2.08645e-008 3.77894e-005 6.81332e-007
Spine  3.65132 0.96237 11.5521
Spine1  6.22043 1.84779 -3.32291
HEad  -44.0976 63.0188 -32.7768
LeftShoulder1  7.36472 -13.162 -38.0813
LeftArm  14.9802 8.92805 -32.8516
LeftForeArm  107.571 -80.3365 -96.8979
LeftHand  -0.469614 -3.58675 6.3319
RightShoulder  3.51269 6.31017 29.8788
RightArm  -11.3876 -11.6435 26.1489
RightForeArm  24.7107 53.8055 13.364
RightHand  -1.59207 3.91817 -19.9286
LeftUpLeg  -8.67309 7.48228 3.881
LeftLeg  22.5903 7.5545 3.77106
LeftFoot  -19.8082 -0.193146 -4.20947
LeftToes  1.24767e-006 1.47042e-008 1.32732e-009
